# xmcd
#
# Track frame offsets:
#	150
#	13115
#	26005
#	42142
#	55255
#	72077
#	86440
#	104235
#	121772
#	135222
#	152042
#	165375
#	178260
#	194092
#	207107
#
# Disc length: 2962 seconds
#
# Revision: 0
# Processed by: cddbd v1.4PL0 Copyright (c) Steve Scherf et al.
# Submitted via: dBpowerAMP V4.0
#
DISCID=c80b900f
DTITLE=Jorge Falcon - Mis 30 mejores tangos cd1
DYEAR=1997
DGENRE=Tango
TTITLE0=LA ÚLTIMA COPA
TTITLE1=PASIONAL
TTITLE2=VOLVIÓ UNA NOCHE
TTITLE3=SABOR DE ADIOS
TTITLE4=MINGUNA
TTITLE5=VOLVER
TTITLE6=TUYA
TTITLE7=EL DIA QUE ME QUIERAS
TTITLE8=CORAZON ME ESUIVOQUÉ
TTITLE9=QUIERO VERTE UNA VEZ MAS
TTITLE10=ME HAN PROHIBIDO QUERERTE
TTITLE11=NO HABÍA OTRA COMO ELLA
TTITLE12=FUERON TRES AÑOS
TTITLE13=ESTA NOCHE DE COPAS
TTITLE14=UN CARIÑO PASAJERO
EXTD=
EXTT0=
EXTT1=
EXTT2=
EXTT3=
EXTT4=
EXTT5=
EXTT6=
EXTT7=
EXTT8=
EXTT9=
EXTT10=
EXTT11=
EXTT12=
EXTT13=
EXTT14=
PLAYORDER=
